#N canvas 0 62 1440 810 12;
#X obj 226 578 throw~ outL;
#X obj 274 553 throw~ outR;
#X obj 226 505 *~ 1;
#X obj 20 14 r knob1;
#X text 180 46 1: queen song;
#X text 181 72 2: vamos a la playa;
#X obj 782 118 simple-play lizzo-tab;
#X msg 632 309 0.25;
#X obj 632 342 simple-play vamos-tab;
#X msg 835 83 stop;
#X msg 675 307 stop;
#X msg 511 560 stop;
#X obj 468 595 simple-play queen-tab;
#X obj 782 170 *~ 0.8;
#X obj 491 -1 r aux;
#X obj 491 23 sel 1;
#X obj 491 47 t b b b, f 42;
#X msg 886 82 speed \$1;
#X msg 731 310 speed \$1;
#X msg 561 563 speed \$1;
#X obj 888 53 r global-speed;
#X obj 735 277 r global-speed;
#X obj 563 534 r global-speed;
#X obj 632 366 *~ 1.25;
#X floatatom 56 375 5 0 0 0 - - - 0;
#X obj 56 428 s global-speed;
#X obj 110 396 line 1 1;
#X msg 110 372 1 0 \, 0 5000 0;
#X obj 527 637 cos~;
#X obj 666 663 -~ 0.5;
#X obj 666 689 *~ 0.5;
#X obj 468 643 *~;
#X obj 143 7 hsl 128 15 0 127 0 0 empty empty empty -2 -8 0 10 #fcfcfc
#000000 #000000 0 1;
#X obj 115 31 / 127;
#X obj 20 68 s~ \$0-trans;
#X obj 20 38 sig~;
#X obj 674 494 r~ \$0-trans;
#X obj 667 609 -~ 0.1;
#X obj 226 460 catch~ \$0-bus;
#X obj 468 667 throw~ \$0-bus;
#X obj 856 419 cos~;
#X obj 856 368 -~ 0.5;
#X obj 856 394 *~ 0.5;
#X obj 857 260 r~ \$0-trans;
#X obj 632 390 *~, f 16;
#X obj 632 414 throw~ \$0-bus;
#X obj 1012 129 cos~;
#X obj 1012 78 -~ 0.5;
#X obj 1012 104 *~ 0.5;
#X obj 1013 -30 r~ \$0-trans;
#X obj 782 194 *~, f 7;
#X obj 782 220 throw~ \$0-bus;
#X obj 667 585 clip~ 0.1 0.4;
#X obj 857 290 clip~ 0.4 0.7;
#X obj 857 314 -~ 0.4;
#X obj 857 341 /~ 0.3;
#X obj 667 636 /~ 0.3;
#X obj 1013 0 clip~ 0.7 1;
#X obj 1013 24 -~ 0.7;
#X obj 1013 51 /~ 0.3;
#N canvas 132 25 1176 817 static 0;
#X obj 157 213 cos~;
#X obj 157 150 +~;
#X obj 157 182 wrap~;
#X obj 239 171 s~ wow;
#X obj 157 14 r~ wow;
#X obj 217 51 osc~ 100;
#X obj 442 284 cos~;
#X obj 443 45 r~ \$0-trans;
#X obj 168 598 *~;
#X obj 168 622 throw~ \$0-bus;
#X obj 157 261 lop~ 1200;
#X obj 157 237 *~ 0.5;
#X obj 217 75 *~ 0.25;
#X obj 443 195 -~ 0.5;
#X obj 443 228 *~ 0.5;
#X obj 443 146 *~ 0.5;
#X obj 443 170 +~ 0.5;
#X obj 548 227 -~ 0.5;
#X obj 548 260 *~ 0.5;
#X obj 442 338 +~, f 11;
#X obj 548 284 cos~;
#X obj 665 226 -~ 0.5;
#X obj 665 259 *~ 0.5;
#X obj 665 283 cos~;
#X obj 785 226 -~ 0.5;
#X obj 785 259 *~ 0.5;
#X obj 784 287 cos~;
#X obj 668 330 +~, f 11;
#X obj 442 362 +~, f 21;
#X obj 443 121 /~ 0.3;
#X obj 443 94 clip~ 0 0.3;
#X obj 548 96 clip~ 0.3 0.6;
#X obj 548 153 /~ 0.3;
#X obj 665 95 clip~ 0.6 0.9;
#X obj 665 119 -~ 0.6;
#X obj 665 152 /~ 0.3;
#X obj 785 152 /~ 0.3;
#X obj 785 95 clip~ 0.9 1;
#X obj 548 120 -~ 0.3;
#X obj 785 119 -~ 0.9;
#X obj 286 27 r~ \$0-trans;
#X obj 286 75 wrap~;
#X obj 239 139 *~;
#X obj 286 145 +~ 0.58;
#X obj 286 99 *~ 0.15;
#X obj 286 51 *~ 24;
#X connect 0 0 11 0;
#X connect 0 0 42 0;
#X connect 1 0 2 0;
#X connect 2 0 0 0;
#X connect 4 0 1 0;
#X connect 5 0 12 0;
#X connect 6 0 19 0;
#X connect 7 0 30 0;
#X connect 7 0 31 0;
#X connect 7 0 33 0;
#X connect 7 0 37 0;
#X connect 8 0 9 0;
#X connect 10 0 8 0;
#X connect 11 0 10 0;
#X connect 12 0 1 1;
#X connect 13 0 14 0;
#X connect 14 0 6 0;
#X connect 15 0 16 0;
#X connect 16 0 13 0;
#X connect 17 0 18 0;
#X connect 18 0 20 0;
#X connect 19 0 28 0;
#X connect 20 0 19 1;
#X connect 21 0 22 0;
#X connect 22 0 23 0;
#X connect 23 0 27 0;
#X connect 24 0 25 0;
#X connect 25 0 26 0;
#X connect 26 0 27 1;
#X connect 27 0 28 1;
#X connect 28 0 8 1;
#X connect 29 0 15 0;
#X connect 30 0 29 0;
#X connect 31 0 38 0;
#X connect 32 0 17 0;
#X connect 33 0 34 0;
#X connect 34 0 35 0;
#X connect 35 0 21 0;
#X connect 36 0 24 0;
#X connect 37 0 39 0;
#X connect 38 0 32 0;
#X connect 39 0 36 0;
#X connect 40 0 45 0;
#X connect 41 0 44 0;
#X connect 42 0 3 0;
#X connect 43 0 42 1;
#X connect 44 0 43 0;
#X connect 45 0 41 0;
#X restore 23 182 pd static;
#N canvas 353 378 690 470 arrays 1;
#X obj 90 218 soundfiler;
#X obj 101 259 array define lizzo-tab;
#X obj 100 328 array define queen-tab;
#X obj 100 295 array define vamos-tab;
#X msg 90 133 read -resize lizzo.wav lizzo-tab;
#X msg 98 158 read -resize vamos.wav vamos-tab;
#X obj 90 83 loadbang;
#X obj 90 107 t b b b b;
#X obj 198 103 s global-speed;
#X obj 198 78 i 1;
#X obj 238 84 bng 15 250 50 0 empty empty empty 17 7 0 10 #fcfcfc #000000
#000000;
#X msg 115 184 read -resize keeper.wav queen-tab;
#X connect 4 0 0 0;
#X connect 5 0 0 0;
#X connect 6 0 7 0;
#X connect 7 0 4 0;
#X connect 7 1 5 0;
#X connect 7 2 11 0;
#X connect 7 3 9 0;
#X connect 9 0 8 0;
#X connect 10 0 7 0;
#X connect 11 0 0 0;
#X restore 27 261 pd arrays;
#X obj 73 347 bng 15 250 50 0 empty empty empty 17 7 0 10 #fcfcfc #000000
#000000;
#X msg 468 562 0.18;
#X msg 782 85 0.2;
#X obj 552 0 loadbang;
#X obj 468 619 *~ 1.2;
#X connect 2 0 0 0;
#X connect 2 0 1 0;
#X connect 3 0 35 0;
#X connect 6 0 13 0;
#X connect 7 0 8 0;
#X connect 8 0 23 0;
#X connect 9 0 6 0;
#X connect 10 0 8 0;
#X connect 11 0 12 0;
#X connect 12 0 66 0;
#X connect 13 0 50 0;
#X connect 14 0 15 0;
#X connect 15 0 16 0;
#X connect 16 0 63 0;
#X connect 16 1 7 0;
#X connect 16 2 64 0;
#X connect 17 0 6 0;
#X connect 18 0 8 0;
#X connect 19 0 12 0;
#X connect 20 0 17 0;
#X connect 21 0 18 0;
#X connect 22 0 19 0;
#X connect 23 0 44 0;
#X connect 24 0 25 0;
#X connect 26 0 25 0;
#X connect 27 0 26 0;
#X connect 28 0 31 1;
#X connect 29 0 30 0;
#X connect 30 0 28 0;
#X connect 31 0 39 0;
#X connect 32 0 33 0;
#X connect 33 0 35 0;
#X connect 35 0 34 0;
#X connect 36 0 52 0;
#X connect 37 0 56 0;
#X connect 38 0 2 0;
#X connect 40 0 44 1;
#X connect 41 0 42 0;
#X connect 42 0 40 0;
#X connect 43 0 53 0;
#X connect 44 0 45 0;
#X connect 46 0 50 1;
#X connect 47 0 48 0;
#X connect 48 0 46 0;
#X connect 49 0 57 0;
#X connect 50 0 51 0;
#X connect 52 0 37 0;
#X connect 53 0 54 0;
#X connect 54 0 55 0;
#X connect 55 0 41 0;
#X connect 56 0 29 0;
#X connect 57 0 58 0;
#X connect 58 0 59 0;
#X connect 59 0 47 0;
#X connect 62 0 24 0;
#X connect 63 0 12 0;
#X connect 64 0 6 0;
#X connect 65 0 16 0;
#X connect 66 0 31 0;
