#N canvas 441 156 791 628 12;
#X obj 253 351 phasor~;
#X obj 253 177 / 44.1;
#X obj 253 201 swap 1000;
#X obj 253 225 /, f 9;
#X obj 253 147 t a a, f 15;
#X obj 253 425 *~, f 11;
#X obj 338 398 - 2;
#X obj 253 449 +~ 1;
#X obj 253 532 hip~ 5;
#X obj 302 322 0.25;
#X obj 144 32 inlet;
#X obj 253 94 t b a;
#X obj 253 556 outlet~;
#X obj 253 473 tabread~ \$1;
#X obj 253 123 array size \$1;
#X text 328 63 Arg1: name of array;
#X obj 144 80 0;
#X obj 144 56 route stop speed;
#X obj 253 395 *~ 1;
#X obj 253 260 sig~;
#X obj 177 263 lop~ 5;
#X obj 253 309 *~;
#X connect 0 0 18 0;
#X connect 1 0 2 0;
#X connect 2 0 3 0;
#X connect 2 1 3 1;
#X connect 3 0 19 0;
#X connect 4 0 1 0;
#X connect 4 1 6 0;
#X connect 5 0 7 0;
#X connect 6 0 5 1;
#X connect 7 0 13 0;
#X connect 8 0 12 0;
#X connect 9 0 0 1;
#X connect 10 0 17 0;
#X connect 11 0 14 0;
#X connect 11 1 9 0;
#X connect 13 0 8 0;
#X connect 14 0 4 0;
#X connect 16 0 19 0;
#X connect 17 0 16 0;
#X connect 17 1 20 0;
#X connect 17 2 11 0;
#X connect 18 0 5 0;
#X connect 19 0 21 0;
#X connect 20 0 21 1;
#X connect 21 0 0 0;
